<svg xmlns="http://www.w3.org/2000/svg" viewBox="0 0 960 960">
<path d="M453,40 452,41 440,41 439,42 430,42 429,43 422,43 421,44 408,45 407,46 402,46 401,47 397,47 396,48 392,48 391,49 387,49 382,51 378,51 377,52 366,54 362,56 352,58 351,59 331,65 328,67 323,68 320,70 318,70 315,72 308,74 303,77 301,77 290,83 288,83 282,86 280,88 265,95 258,100 253,102 248,106 245,107 224,121 212,130 208,134 197,142 191,148 190,148 181,157 180,157 148,190 148,191 142,197 142,198 121,224 99,258 82,290 82,292 77,301 77,303 74,308 74,310 68,323 67,328 65,331 65,333 58,352 58,355 56,359 55,366 53,370 52,378 51,379 51,382 49,387 49,391 48,392 48,396 47,397 45,414 44,415 43,429 42,430 42,439 41,440 41,453 40,454 40,506 41,507 41,519 42,520 42,529 43,530 43,537 44,538 45,551 46,552 46,557 47,558 47,562 48,563 48,567 49,568 49,572 51,577 51,581 52,582 53,589 55,593 56,600 58,604 58,607 59,608 65,628 67,631 68,636 70,639 70,641 72,644 74,651 77,656 77,658 83,669 83,671 102,706 106,711 107,714 121,735 133,751 147,767 147,768 156,777 156,778 191,812 192,812 203,822 204,822 208,826 224,838 245,852 248,853 253,857 258,859 267,865 284,873 286,875 288,875 301,882 303,882 308,885 310,885 323,891 331,893 334,895 336,895 349,900 352,900 359,903 362,903 363,904 366,904 367,905 370,905 371,906 374,906 375,907 378,907 383,909 387,909 392,911 402,912 403,913 407,913 408,914 421,915 422,916 430,916 431,917 439,917 440,918 453,918 454,919 506,919 507,918 519,918 520,917 528,917 529,916 537,916 538,915 544,915 545,914 550,914 551,913 557,913 558,912 562,912 563,911 567,911 568,910 572,910 577,908 581,908 582,907 589,906 593,904 600,903 607,900 610,900 611,899 631,893 634,891 636,891 639,889 641,889 644,887 651,885 656,882 658,882 669,876 671,876 711,854 751,826 768,811 769,811 777,803 778,803 812,768 812,767 822,756 822,755 826,751 838,735 860,701 870,681 872,679 873,675 882,658 882,656 885,651 885,649 891,636 892,631 894,628 894,626 900,610 900,607 903,600 904,593 906,589 907,581 908,580 908,577 910,572 910,568 911,567 911,563 912,562 914,545 915,544 916,530 917,529 917,520 918,519 918,506 919,505 919,453 918,452 918,440 917,439 917,430 916,429 915,415 914,414 912,397 911,396 911,392 910,391 910,387 909,386 909,383 907,378 906,370 904,366 903,359 900,352 900,349 899,348 894,331 892,328 891,323 889,320 889,318 887,315 885,308 882,303 882,301 874,286 874,284 871,278 869,276 865,267 863,265 860,258 853,248 852,245 838,224 826,208 812,192 812,191 803,182 803,181 769,148 768,148 756,137 755,137 751,133 735,121 701,99 671,83 669,83 658,77 656,77 651,74 649,74 646,72 644,72 639,69 634,68 631,66 629,66 607,58 597,56 593,54 590,54 589,53 586,53 581,51 577,51 572,49 558,47 557,46 552,46 551,45 545,45 544,44 538,44 537,43 530,43 529,42 520,42 519,41 507,41 506,40Z M442,118 453,118 454,117 503,117 504,118 515,118 516,119 524,119 525,120 531,120 532,121 543,122 544,123 558,125 559,126 574,129 578,131 581,131 582,132 605,139 618,145 620,145 653,161 655,163 667,169 672,173 675,174 684,180 687,183 699,191 708,199 709,199 729,218 730,218 758,248 758,249 766,258 774,270 777,273 783,282 784,285 788,290 789,293 791,295 794,302 796,304 813,339 813,341 817,349 818,354 820,357 820,359 825,372 825,375 827,379 827,382 829,386 829,389 830,390 830,393 832,398 832,402 833,403 833,407 834,408 834,412 835,413 835,418 836,419 836,424 837,425 838,439 839,440 839,451 840,452 840,474 841,475 841,477 840,478 840,504 839,505 839,516 838,517 838,524 837,525 837,531 836,532 836,538 835,539 835,543 834,544 834,549 833,550 832,558 831,559 828,574 826,578 826,581 825,582 818,605 814,613 814,615 798,649 796,651 793,658 791,660 789,665 785,670 784,673 776,685 773,688 771,692 760,705 760,706 748,719 748,720 712,755 711,755 706,760 705,760 689,773 671,785 658,792 656,794 626,809 624,809 612,815 607,816 604,818 602,818 580,826 577,826 573,828 570,828 569,829 566,829 561,831 557,831 552,833 543,834 542,835 536,835 535,836 522,837 521,838 513,838 512,839 498,839 497,840 462,840 461,839 445,839 444,838 429,837 428,836 423,836 422,835 417,835 416,834 406,833 405,832 397,831 396,830 385,828 381,826 378,826 368,822 365,822 359,819 357,819 356,818 351,817 348,815 346,815 343,813 341,813 338,811 336,811 327,806 325,806 309,798 307,796 300,793 298,791 295,790 293,788 290,787 273,776 270,773 266,771 254,762 249,757 248,757 231,741 230,741 200,709 200,708 183,687 175,675 174,672 170,667 165,657 163,655 160,648 158,646 147,623 147,621 144,616 144,614 140,606 140,604 139,603 138,598 136,595 136,593 134,589 134,586 131,579 131,576 129,572 129,569 128,568 128,565 126,560 126,556 125,555 123,541 122,540 121,528 120,527 120,520 119,519 119,510 118,509 118,496 117,495 117,461 118,460 119,437 120,436 120,429 121,428 121,422 122,421 122,417 123,416 123,411 124,410 125,401 126,400 126,397 127,396 130,381 133,374 133,371 134,370 138,356 140,353 141,348 143,345 143,343 161,305 163,303 165,298 175,283 176,280 179,277 185,267 195,255 198,250 211,236 211,235 244,203 245,203 250,198 251,198 255,194 271,182 286,172 301,164 303,162 314,157 316,155 318,155 340,144 342,144 345,142 347,142 350,140 358,138 361,136 363,136 367,134 370,134 380,130 383,130 384,129 387,129 388,128 391,128 392,127 395,127 400,125 404,125 409,123 419,122 420,121 425,121 426,120 441,119Z M415,165 415,414 414,415 163,415 163,544 414,544 415,545 415,794 416,795 543,795 544,794 544,545 545,544 796,544 797,543 797,416 796,415 545,415 544,414 544,165Z" fill="#000" fill-rule="evenodd"/>
</svg>
