<svg xmlns="http://www.w3.org/2000/svg" viewBox="0 0 960 960">
<path d="M467,694 490,694 491,695 498,695 499,696 503,696 504,697 508,697 512,699 515,699 516,700 521,701 524,703 526,703 538,709 558,723 571,736 584,754 591,768 591,770 593,773 593,775 596,782 596,785 598,790 598,794 599,795 599,802 600,803 600,828 599,829 599,835 598,836 598,841 597,842 596,849 595,850 593,858 591,861 591,863 585,875 583,877 578,886 570,895 570,896 554,911 546,917 530,926 528,926 523,929 521,929 511,933 503,934 502,935 497,935 496,936 488,936 487,937 470,937 469,936 461,936 460,935 455,935 454,934 447,933 446,932 435,929 432,927 430,927 420,922 400,908 382,889 375,879 368,866 368,864 365,859 365,857 362,850 362,847 361,846 361,843 359,838 359,833 358,832 358,822 357,821 358,799 359,798 359,793 360,792 361,784 362,783 365,772 367,769 367,767 373,755 384,739 402,721 418,710 432,703 434,703 437,701 439,701 446,698 454,697 455,696 459,696 460,695 466,695Z M708,595 727,595 728,596 736,596 737,597 741,597 742,598 750,599 751,600 762,603 769,607 773,608 793,621 800,628 801,628 812,640 822,654 825,661 827,663 827,665 830,670 830,672 832,675 832,677 835,684 836,692 837,693 837,697 838,698 838,706 839,707 839,726 838,727 838,735 837,736 837,740 836,741 835,749 834,750 832,758 830,761 830,763 827,768 827,770 825,772 822,779 813,792 806,799 806,800 793,812 769,827 767,827 762,830 760,830 750,834 747,834 742,836 737,836 736,837 729,837 728,838 707,838 706,837 699,837 698,836 693,836 692,835 685,834 684,833 676,831 673,829 671,829 666,826 664,826 662,824 655,821 641,811 634,804 633,804 623,793 613,779 610,772 608,770 608,768 605,763 605,761 603,758 603,756 600,749 599,741 598,740 598,736 597,735 597,727 596,726 596,707 597,706 597,698 598,697 598,693 599,692 600,684 601,683 603,675 605,672 605,670 613,654 623,640 630,633 630,632 641,622 655,612 671,604 673,604 676,602 678,602 682,600 685,600 686,599 693,598 694,597 698,597 699,596 707,596Z M232,595 251,595 252,596 260,596 261,597 265,597 266,598 274,599 275,600 286,603 293,607 297,608 317,621 325,629 326,629 336,640 346,654 354,670 354,672 356,675 356,677 358,681 358,684 359,685 360,692 361,693 361,697 362,698 362,706 363,707 363,726 362,727 362,735 361,736 361,740 360,741 360,745 358,749 358,752 357,753 356,758 354,761 354,763 346,779 336,793 329,800 329,801 317,812 297,825 293,826 286,830 284,830 274,834 271,834 266,836 261,836 260,837 253,837 252,838 231,838 230,837 223,837 222,836 217,836 216,835 209,834 188,826 186,824 179,821 166,812 159,805 158,805 146,792 131,768 131,766 128,761 128,759 124,749 123,741 122,740 122,736 121,735 121,728 120,727 120,706 121,705 121,698 122,697 122,693 123,692 124,684 125,683 128,672 132,665 133,661 146,641 157,629 158,629 170,618 179,612 195,604 197,604 200,602 202,602 206,600 209,600 210,599 217,598 218,597 222,597 223,596 231,596Z M802,359 828,359 829,360 835,360 836,361 841,361 842,362 849,363 850,364 858,366 861,368 863,368 875,374 890,384 906,399 906,400 917,413 918,416 923,423 926,429 926,431 929,436 929,438 932,445 932,448 933,449 934,456 935,457 935,462 936,463 936,471 937,472 937,489 936,490 936,498 935,499 935,504 934,505 933,512 932,513 929,524 927,527 927,529 922,539 912,554 893,574 874,587 859,594 857,594 850,597 839,599 838,600 833,600 832,601 810,602 809,601 799,601 798,600 788,599 787,598 781,597 780,596 772,594 769,592 767,592 755,586 739,575 721,557 711,543 703,527 703,525 701,522 701,520 698,513 697,505 696,504 696,500 695,499 695,492 694,491 694,469 695,468 695,461 696,460 696,456 697,455 697,451 699,447 699,444 709,421 719,406 736,388 754,375 773,366 775,366 782,363 789,362 790,361 801,360Z M127,358 150,357 151,358 160,358 161,359 171,360 172,361 175,361 176,362 187,365 190,367 192,367 212,378 220,384 238,402 246,413 258,437 258,439 261,446 261,449 262,450 263,459 264,460 264,467 265,468 265,490 264,491 263,503 262,504 260,515 255,526 255,528 250,538 248,540 243,549 235,558 235,559 223,571 205,584 186,593 184,593 177,596 170,597 169,598 165,598 164,599 157,599 156,600 131,600 130,599 118,598 117,597 110,596 109,595 104,594 101,592 99,592 96,590 94,590 84,585 82,583 73,578 69,574 63,570 53,560 53,559 42,546 41,543 36,536 33,530 33,528 30,523 30,521 26,511 25,503 24,502 24,498 23,497 23,489 22,488 22,470 23,469 23,461 24,460 24,455 25,454 26,447 28,443 28,440 32,432 32,430 38,418 46,406 65,386 85,372 93,368 95,368 100,365 102,365 109,362 120,360 121,359 126,359Z M466,290 496,290 497,291 505,291 506,292 512,292 513,293 522,294 523,295 530,296 534,298 537,298 538,299 543,300 546,302 551,303 572,313 582,320 585,321 601,333 609,341 610,341 626,358 638,374 639,377 647,389 655,406 655,408 657,411 657,413 659,416 659,418 661,422 661,425 662,426 664,436 665,437 666,446 667,447 668,463 669,464 669,493 668,494 668,503 667,504 666,515 665,516 665,520 664,521 663,528 661,532 661,535 658,541 655,551 647,568 645,570 643,575 633,590 629,594 625,600 616,609 616,610 601,624 585,636 582,637 570,645 553,653 551,653 543,657 537,658 530,661 527,661 522,663 518,663 517,664 506,665 505,666 496,666 495,667 466,667 465,666 457,666 456,665 444,664 443,663 428,660 427,659 413,655 410,653 408,653 401,649 399,649 391,645 389,643 386,642 384,640 381,639 372,633 360,623 359,623 349,613 348,613 336,600 336,599 328,590 318,575 316,570 314,568 306,551 306,549 304,546 304,544 298,528 297,520 295,515 294,504 293,503 293,494 292,493 292,464 293,463 293,454 294,453 295,442 296,441 296,437 297,436 298,429 300,425 300,422 303,416 306,406 314,389 316,387 318,382 328,367 332,363 335,358 345,348 345,347 360,333 365,330 369,326 384,316 389,314 391,312 408,304 410,304 413,302 415,302 418,300 420,300 424,298 427,298 428,297 438,295 439,294 448,293 449,292 465,291Z M707,121 728,121 729,122 736,122 737,123 742,123 743,124 750,125 751,126 762,129 767,132 769,132 793,147 799,153 800,153 813,167 826,187 827,191 831,198 831,200 835,210 836,218 837,219 837,223 838,224 838,232 839,233 839,252 838,253 838,261 837,262 837,266 836,267 835,275 834,276 832,284 830,287 830,289 822,305 812,319 805,326 805,327 793,338 769,353 767,353 762,356 760,356 750,360 742,361 741,362 737,362 736,363 728,363 727,364 708,364 707,363 699,363 698,362 694,362 693,361 689,361 685,359 682,359 681,358 676,357 673,355 671,355 655,347 641,337 630,327 630,326 619,314 613,305 605,289 605,287 603,284 603,282 601,278 601,275 600,274 599,267 598,266 598,262 597,261 597,253 596,252 596,233 597,232 597,224 598,223 598,219 599,218 600,210 601,209 603,201 605,198 605,196 608,191 608,189 610,187 613,180 622,167 629,160 629,159 641,148 655,138 662,135 664,133 685,125 688,125 693,123 698,123 699,122 706,122Z M231,121 252,121 253,122 260,122 261,123 266,123 267,124 274,125 275,126 286,129 291,132 293,132 317,147 329,158 329,159 340,171 346,180 354,196 354,198 356,201 356,203 358,207 358,210 359,211 360,218 361,219 361,223 362,224 362,232 363,233 363,252 362,253 362,261 361,262 361,266 360,267 360,271 358,275 358,278 357,279 356,284 354,287 354,289 346,305 336,319 328,327 328,328 318,337 304,347 297,350 295,352 293,352 288,355 286,355 283,357 281,357 274,360 266,361 265,362 261,362 260,363 252,363 251,364 232,364 231,363 223,363 222,362 218,362 217,361 213,361 209,359 206,359 205,358 200,357 197,355 195,355 179,347 165,337 158,330 157,330 147,319 137,305 134,298 132,296 132,294 129,289 129,287 127,284 127,282 124,275 123,267 122,266 122,262 121,261 121,254 120,253 120,232 121,231 121,224 122,223 122,218 123,217 124,210 125,209 128,198 131,193 131,191 146,167 153,160 153,159 166,147 184,135 190,132 192,132 197,129 199,129 209,125 212,125 217,123 222,123 223,122 230,122Z M471,22 489,22 490,23 498,23 499,24 504,24 505,25 512,26 513,27 527,31 541,38 558,50 573,65 587,85 591,93 591,95 594,100 594,102 597,109 597,112 598,113 598,116 600,121 600,126 601,127 601,137 602,138 601,160 600,161 600,166 599,167 598,175 597,176 594,187 586,204 574,221 557,238 543,248 527,256 525,256 522,258 520,258 513,261 505,262 504,263 500,263 499,264 492,264 491,265 469,265 468,264 461,264 460,263 456,263 455,262 444,260 421,250 406,240 388,223 375,205 366,186 366,184 363,177 362,170 361,169 360,158 359,157 359,131 360,130 360,124 361,123 361,118 362,117 363,110 364,109 366,101 368,98 368,96 374,84 384,69 399,53 400,53 413,42 416,41 423,36 429,33 431,33 436,30 438,30 445,27 448,27 449,26 456,25 457,24 461,24 462,23 470,23Z" fill="#000" fill-rule="evenodd"/>
</svg>
