<svg xmlns="http://www.w3.org/2000/svg" viewBox="0 0 960 960">
<path d="M865,511 864,511 856,504 851,502 849,500 839,495 837,495 834,493 832,493 825,490 822,490 817,488 813,488 812,487 801,486 800,485 770,485 769,486 763,486 762,487 758,487 757,488 746,490 735,495 733,495 718,503 712,508 708,510 702,516 699,518 697,518 685,507 676,501 661,493 656,492 653,490 643,488 642,487 639,487 638,486 634,486 633,485 624,485 623,484 601,484 600,485 592,485 591,486 587,486 586,487 579,488 578,489 570,491 565,494 563,494 559,497 549,502 541,509 540,509 531,518 516,538 507,555 507,557 504,562 504,564 501,571 501,574 500,575 500,578 498,583 498,588 497,589 497,597 496,598 496,615 497,616 498,631 499,632 500,642 501,643 501,646 502,647 502,650 504,655 504,659 506,663 507,670 509,674 509,677 510,678 510,680 512,684 512,687 514,691 514,694 516,698 516,701 517,702 517,705 518,706 518,709 519,710 519,713 521,718 521,722 523,727 523,731 524,732 524,736 525,737 525,743 526,744 527,769 526,770 526,787 525,788 525,796 524,797 523,810 522,811 521,822 519,827 519,831 517,836 517,840 516,841 513,856 511,860 510,867 506,877 506,880 505,881 498,904 496,907 495,912 493,915 492,920 489,926 489,928 490,929 520,928 521,927 543,926 544,925 552,925 553,924 566,923 567,922 572,922 573,921 578,921 579,920 593,918 601,915 605,915 609,913 612,913 619,910 622,910 623,909 628,908 631,906 634,906 637,904 639,904 642,902 649,900 656,896 658,896 669,890 671,890 677,886 686,882 688,880 695,877 697,875 702,873 747,843 751,839 774,822 794,804 795,804 827,772 827,771 839,758 851,742 855,735 858,732 859,729 867,717 869,712 871,710 877,697 879,695 879,693 891,669 891,667 893,664 893,662 899,649 901,641 903,638 905,628 906,627 906,624 907,623 908,613 909,612 909,589 908,588 908,582 907,581 905,570 902,564 902,562 897,553 897,551 895,549 893,544 891,542 888,536 881,528 881,527Z M859,530 872,545 880,557 887,572 887,574 889,578 889,581 890,582 890,585 891,586 891,591 892,592 892,608 891,609 891,614 890,615 890,619 889,620 889,623 888,624 887,629 885,632 884,637 882,640 881,645 879,648 879,650 877,653 875,660 871,667 869,674 866,678 866,680 858,696 856,698 853,705 851,707 850,710 848,712 847,715 845,717 840,726 837,729 830,740 814,758 814,759 783,790 782,790 773,799 772,799 767,804 766,804 761,809 756,812 747,820 713,844 710,845 705,849 702,850 690,858 683,861 681,863 643,881 633,884 625,888 623,888 607,894 604,894 600,896 597,896 596,897 593,897 592,898 589,898 588,899 585,899 584,900 581,900 576,902 562,904 561,905 555,905 554,906 549,906 548,907 540,907 539,908 532,908 531,909 517,909 516,908 516,906 517,905 517,903 518,902 520,894 522,891 523,885 526,878 526,875 530,864 530,861 531,860 531,857 532,856 532,853 533,852 533,849 534,848 534,845 536,840 537,831 539,826 539,820 540,819 540,815 541,814 542,800 543,799 543,789 544,788 544,776 545,775 545,753 544,752 543,735 542,734 542,729 541,728 541,724 539,719 539,715 538,714 538,711 537,710 536,703 534,699 533,692 532,691 532,689 530,685 530,682 526,672 526,669 524,665 522,654 521,653 519,643 518,642 518,638 517,637 517,633 516,632 516,628 515,627 515,621 514,620 513,603 514,602 514,593 515,592 516,583 517,582 520,571 525,562 525,560 528,554 530,552 534,544 540,536 546,530 546,529 557,519 566,513 579,507 581,507 585,505 588,505 589,504 593,504 594,503 600,503 601,502 619,502 620,503 627,503 628,504 639,506 640,507 645,508 648,510 650,510 660,515 662,517 667,519 676,525 697,543 700,543 707,536 717,529 721,525 732,519 734,517 753,508 763,506 764,505 767,505 768,504 773,504 774,503 796,503 797,504 804,504 805,505 810,505 815,507 819,507 822,509 825,509 828,511 830,511 842,517 852,524 858,530Z M527,589 525,592 525,598 524,599 524,614 525,615 526,629 527,630 527,634 528,635 529,643 530,644 532,655 534,659 535,666 540,679 540,682 544,693 546,704 548,708 549,716 551,721 551,725 553,730 553,737 554,738 554,744 555,745 555,783 554,784 554,793 553,794 552,810 551,811 550,822 549,823 549,827 548,828 548,832 546,837 546,841 545,842 545,846 544,847 542,858 540,862 540,865 537,873 537,876 532,889 532,891 533,891 539,887 550,877 551,877 561,867 561,864 562,863 563,843 564,842 564,833 565,832 565,820 566,819 566,744 565,743 565,733 564,732 564,723 563,722 563,713 562,712 562,706 561,705 561,698 560,697 559,686 558,685 558,681 557,680 557,675 556,674 556,671 554,666 554,662 552,658 552,654 550,650 550,647 546,637 546,634 545,633 542,622 540,619 540,617 538,614 536,607 532,600 532,598 530,596 530,594Z M867,556 866,556 865,558 865,565 864,566 864,572 863,573 863,577 862,578 861,589 859,594 859,598 858,599 855,614 852,621 852,624 851,625 848,636 846,639 845,644 843,647 841,654 838,659 838,661 832,672 832,674 829,680 827,682 824,689 819,696 817,701 805,719 799,726 797,730 784,745 784,746 776,754 776,755 746,785 745,785 727,801 715,810 705,816 702,819 693,824 691,826 688,827 683,831 672,836 670,838 663,841 661,843 659,843 650,848 648,848 641,852 639,852 634,855 632,855 624,859 622,859 621,860 613,862 610,864 604,865 597,868 594,868 583,872 568,875 560,881 547,893 546,893 542,897 543,898 545,897 552,897 553,896 558,896 559,895 564,895 565,894 579,892 587,889 590,889 598,886 601,886 602,885 622,879 625,877 635,874 638,872 640,872 649,867 653,866 655,864 657,864 675,855 677,853 684,850 686,848 691,846 696,842 699,841 726,823 733,817 737,815 741,811 757,799 762,794 763,794 771,786 772,786 800,758 800,757 812,744 812,743 826,726 848,692 864,661 864,659 868,652 868,650 870,647 870,645 872,642 872,640 874,637 874,635 878,625 879,617 880,616 880,612 881,611 881,590 880,589 880,585 879,584 879,581 878,580 876,572Z M540,553 531,571 531,575 541,594 541,596 547,608 548,613 553,624 553,627 558,640 558,643 561,651 561,654 563,659 563,663 564,664 564,667 566,672 566,676 567,677 567,682 568,683 569,693 570,694 570,700 571,701 571,707 572,708 572,715 573,716 574,737 575,738 575,754 576,755 576,814 575,815 575,833 574,834 574,847 573,848 573,855 574,855 580,849 584,843 585,835 586,834 586,830 587,829 587,824 588,823 588,818 589,817 590,801 591,800 591,793 592,792 592,782 593,781 593,728 592,727 592,720 591,719 590,704 589,703 589,698 588,697 588,692 587,691 587,687 586,686 584,672 582,668 582,665 580,660 580,656 579,655 578,649 575,642 575,639 571,629 570,623 568,620 565,609 563,606 562,601 558,593 555,583 552,578 552,576 549,571 549,569 545,562 545,560 542,554Z M846,532 844,533 844,544 843,545 843,553 842,554 842,561 841,562 841,567 840,568 840,572 839,573 839,578 837,583 837,587 836,588 834,599 832,603 832,606 831,607 825,627 822,632 822,634 816,646 816,648 811,657 811,659 807,665 805,670 803,672 800,679 798,681 794,689 784,704 781,707 771,722 766,727 763,732 757,738 752,745 739,758 739,759 713,784 701,793 696,798 692,800 681,809 669,817 656,824 654,826 619,843 617,843 604,849 590,853 583,861 591,860 592,859 615,852 623,848 628,847 668,828 680,820 685,818 715,797 719,793 724,790 738,777 739,777 763,753 763,752 782,731 797,711 798,708 801,705 802,702 808,694 813,684 815,682 819,673 821,671 821,669 824,663 826,661 826,659 832,647 832,645 836,637 837,632 839,629 839,627 842,620 842,617 844,614 844,611 845,610 845,607 846,606 846,603 847,602 847,599 849,595 849,591 851,586 851,582 852,581 852,577 853,576 853,572 854,571 855,558 856,557 856,550 857,549 857,543Z M735,528 725,534 721,538 715,542 710,547 709,547 703,554 703,563 704,564 704,591 703,592 702,617 701,618 701,626 700,627 700,634 699,635 699,639 698,640 698,644 697,645 697,650 696,651 696,655 695,656 695,659 694,660 692,670 694,669 702,657 704,652 706,650 715,632 715,630 717,627 717,625 719,622 719,620 723,610 723,607 726,600 726,597 727,596 727,593 729,588 729,584 730,583 730,579 731,578 731,573 732,572 732,565 733,564 733,557 734,556 734,548 735,547Z M657,525 662,541 663,542 663,545 666,552 666,555 668,560 668,564 670,569 670,573 672,578 673,588 674,589 675,601 676,602 676,607 677,608 677,615 678,616 678,623 679,624 679,633 680,634 680,642 681,643 682,664 685,657 685,653 686,652 686,648 687,647 687,643 688,642 688,638 689,637 689,633 690,632 691,619 692,618 693,598 694,597 694,556 693,555 693,553 679,540 678,540 668,531 659,525Z M567,522 553,533 553,534 548,539 547,544 558,567 558,569 563,579 563,581 569,594 570,599 572,602 575,613 577,616 577,619 578,620 578,622 586,644 587,651 589,655 589,659 591,663 591,667 592,668 592,671 594,676 594,680 595,681 595,685 596,686 596,690 597,691 597,696 598,697 599,708 600,709 600,715 601,716 602,734 603,735 603,784 602,785 602,795 601,796 600,813 599,814 599,820 598,821 598,827 597,828 597,829 599,829 601,825 609,816 618,804 620,800 620,718 619,717 619,705 618,704 617,681 616,680 616,673 615,672 615,666 614,665 614,659 613,658 613,652 612,651 612,647 611,646 611,641 610,640 609,631 607,626 607,622 606,621 606,618 605,617 604,609 602,605 601,598 600,597 592,571 590,568 589,563 586,558 584,551 571,525Z M829,521 824,520 821,518 817,518 816,519 815,543 814,544 814,549 813,550 812,562 811,563 810,572 809,573 809,576 808,577 805,592 804,593 798,613 796,616 796,618 791,629 791,631 787,638 787,640 775,664 773,666 767,678 765,680 764,683 760,688 759,691 751,703 745,710 740,718 728,732 728,733 706,756 705,756 689,771 688,771 672,784 666,787 661,791 658,792 653,796 648,798 646,800 636,805 634,805 625,810 622,815 607,833 605,837 609,836 612,834 614,834 626,828 628,828 644,820 646,818 663,809 698,784 713,770 714,770 738,746 738,745 752,730 752,729 756,725 756,724 760,720 772,704 782,689 786,681 790,676 791,673 793,671 809,639 809,637 814,627 816,619 818,616 818,614 823,601 823,598 825,594 825,590 826,589 826,586 828,581 828,577 829,576 829,572 830,571 830,566 831,565 831,561 832,560 833,543 834,542 834,524Z M768,515 764,515 763,516 756,517 748,520 747,522 747,536 746,537 745,555 744,556 744,560 743,561 742,572 741,573 741,577 739,582 739,586 738,587 737,594 735,598 735,601 733,605 733,608 732,609 727,626 725,629 722,639 714,654 714,656 708,665 707,668 695,684 685,694 683,698 683,701 680,707 679,712 677,715 675,722 671,729 670,735 680,726 681,726 700,707 700,706 712,692 729,666 742,640 742,638 748,626 749,621 751,618 751,616 756,603 756,600 760,589 761,581 762,580 762,576 764,571 764,565 765,564 766,551 767,550 767,540 768,539Z M806,515 794,514 793,513 779,514 778,543 777,544 776,560 775,561 775,565 774,566 773,576 772,577 772,580 771,581 771,584 769,589 769,593 767,597 767,600 766,601 766,603 764,607 764,610 761,616 759,624 757,627 755,634 752,639 752,641 747,650 747,652 743,660 741,662 733,678 721,696 710,709 710,710 705,715 705,716 687,734 686,734 675,744 668,748 659,755 647,778 639,790 639,792 649,787 654,783 657,782 681,765 686,760 687,760 695,752 696,752 712,736 712,735 726,720 741,700 751,685 752,682 756,677 758,672 763,665 779,633 779,631 786,616 787,611 789,608 789,606 794,593 794,590 796,586 797,579 799,575 799,571 800,570 800,566 801,565 801,561 802,560 802,556 803,555 803,550 804,549 804,544 805,543 805,534 806,533 806,524 807,523 807,517Z M618,513 623,524 623,526 625,529 625,531 633,553 633,556 636,563 636,566 637,567 637,570 638,571 638,574 640,579 640,583 642,588 643,597 645,602 645,608 646,609 646,613 647,614 647,618 648,619 648,623 649,624 649,630 650,631 650,637 651,638 651,644 652,645 652,652 653,653 653,659 654,660 655,678 656,679 656,687 657,688 657,699 658,700 658,710 659,711 659,727 661,728 666,717 666,715 668,712 668,710 670,707 670,705 674,695 674,690 673,689 673,663 672,662 671,636 670,635 669,620 668,619 668,613 667,612 665,595 664,594 663,585 662,584 662,581 661,580 658,565 656,561 656,558 654,554 654,551 653,550 651,542 649,539 647,531 645,528 645,526 643,523 643,521 641,517 637,515 629,514 628,513Z M598,513 597,514 592,514 591,515 587,515 586,516 580,517 579,518 579,520 583,526 592,544 592,546 595,551 595,553 598,558 598,560 602,568 602,570 609,589 609,592 612,599 612,602 613,603 613,606 614,607 614,610 616,614 616,618 618,623 618,627 620,632 620,636 621,637 621,642 622,643 623,654 624,655 624,660 625,661 625,668 626,669 626,674 627,675 627,685 628,686 628,696 629,697 629,707 630,708 630,727 631,728 631,778 630,779 630,783 631,783 634,780 635,777 640,770 642,765 644,763 651,750 650,724 649,723 649,708 648,707 648,697 647,696 646,677 645,676 645,670 644,669 644,659 643,658 643,653 642,652 642,644 641,643 641,637 640,636 640,630 639,629 638,618 637,617 637,613 636,612 636,607 635,606 635,602 634,601 634,597 632,592 632,588 631,587 631,584 630,583 630,580 629,579 626,564 623,557 623,554 622,553 619,542 617,539 616,534 613,529 613,527 607,514 606,513Z M91,515 75,533 69,542 67,547 65,549 58,564 58,566 55,573 54,580 53,581 53,586 52,587 52,613 53,614 53,619 54,620 54,624 55,625 56,632 57,633 61,647 64,652 65,657 68,662 68,664 72,672 72,674 88,707 90,709 92,714 94,716 101,729 110,741 114,748 118,752 126,763 133,770 133,771 145,783 145,784 165,803 166,803 187,822 206,836 210,840 221,847 228,853 237,859 240,860 254,870 259,872 266,877 294,892 296,892 314,901 319,902 330,907 332,907 342,911 345,911 349,913 352,913 356,915 367,917 368,918 372,918 373,919 377,919 378,920 382,920 383,921 387,921 388,922 400,923 401,924 409,924 410,925 426,926 427,927 459,928 460,929 462,928 464,928 465,929 470,929 472,928 472,926 470,923 466,910 464,907 460,893 458,890 458,887 452,871 452,868 450,864 450,861 448,857 448,854 447,853 447,850 446,849 446,846 444,841 444,837 443,836 442,828 441,827 441,823 440,822 440,818 439,817 438,806 437,805 436,789 435,788 435,775 434,774 434,752 435,751 435,743 436,742 436,737 437,736 437,731 438,730 439,721 440,720 440,717 441,716 444,701 446,697 446,694 448,690 448,687 450,683 450,680 452,676 452,673 455,666 455,662 457,658 457,654 459,650 460,642 461,641 461,636 462,635 462,631 463,630 463,624 464,623 464,609 465,608 465,602 464,601 464,590 463,589 463,584 462,583 460,572 459,571 457,563 455,560 455,558 446,540 431,519 420,508 406,498 386,489 383,489 375,486 371,486 370,485 362,485 361,484 339,484 338,485 329,485 328,486 324,486 323,487 315,488 314,489 303,492 290,498 288,500 280,504 263,518 260,517 250,508 241,502 223,493 221,493 215,490 212,490 208,488 204,488 203,487 199,487 198,486 192,486 191,485 162,485 161,486 148,487 147,488 143,488 135,491 132,491 110,501Z M104,529 105,529 114,521 132,511 134,511 137,509 139,509 143,507 146,507 147,506 151,506 152,505 156,505 157,504 165,504 166,503 186,503 187,504 193,504 194,505 201,506 202,507 210,509 213,511 215,511 227,517 229,519 232,520 241,526 261,543 264,543 277,531 300,515 317,507 327,505 328,504 332,504 333,503 338,503 339,502 358,502 359,503 369,503 370,504 374,504 375,505 382,506 383,507 388,508 400,514 413,525 428,545 440,569 440,571 442,574 442,576 444,580 445,587 446,588 446,593 447,594 447,605 448,606 448,608 447,609 447,619 446,620 446,626 445,627 443,641 442,642 442,645 441,646 438,661 435,668 433,678 429,688 428,695 424,706 424,709 422,714 422,718 420,723 420,728 419,729 418,740 417,741 417,748 416,749 416,780 417,781 417,791 418,792 418,800 419,801 419,807 420,808 420,815 421,816 422,827 424,832 425,841 426,842 426,845 427,846 427,849 428,850 431,865 433,869 433,872 436,879 436,882 437,883 443,903 445,906 445,908 442,910 441,909 430,909 429,908 422,908 421,907 412,907 411,906 406,906 405,905 400,905 399,904 395,904 394,903 384,902 383,901 376,900 372,898 368,898 364,896 354,894 353,893 333,887 330,885 328,885 325,883 323,883 320,881 313,879 306,875 304,875 278,862 276,860 269,857 267,855 249,845 240,838 227,830 215,820 210,817 189,799 188,799 181,792 180,792 146,758 146,757 139,750 139,749 134,744 125,732 115,717 107,702 105,700 91,672 91,670 85,658 84,653 81,648 77,635 73,627 72,620 70,616 70,610 69,609 69,591 70,590 70,585 71,584 71,581 72,580 74,572 84,553 90,546 92,542Z M434,589 427,602 427,604 424,609 421,619 419,622 419,624 412,643 412,646 410,650 410,653 409,654 409,657 407,661 407,665 405,670 405,674 404,675 404,679 403,680 403,684 402,685 402,690 401,691 400,703 399,704 398,719 397,720 397,731 396,732 396,743 395,744 395,769 394,770 395,820 396,821 397,846 398,847 398,856 399,857 400,867 412,879 413,879 427,891 428,891 428,886 426,883 426,880 422,870 421,863 419,859 419,856 418,855 418,852 416,847 415,838 414,837 413,829 412,828 412,824 411,823 409,805 408,804 407,788 406,787 406,743 407,742 407,736 408,735 408,730 409,729 410,720 411,719 411,716 412,715 412,712 413,711 413,708 414,707 417,692 419,688 419,685 420,684 420,682 423,675 423,672 426,665 426,662 428,658 428,655 429,654 429,651 430,650 430,647 431,646 431,643 433,638 434,629 435,628 435,622 436,621 436,615 437,614 437,599 436,598 436,593Z M94,556 88,565 88,567 85,572 85,574 83,577 83,580 81,584 81,588 80,589 80,612 81,613 82,622 85,629 85,632 87,635 87,637 92,648 92,650 101,668 101,670 120,704 141,734 145,738 153,749 161,757 161,758 190,787 191,787 200,796 201,796 220,812 257,838 260,839 277,850 284,853 286,855 321,872 323,872 336,878 338,878 339,879 341,879 363,887 366,887 370,889 374,889 382,892 386,892 387,893 391,893 392,894 396,894 397,895 402,895 403,896 408,896 409,897 415,897 416,898 418,898 419,897 416,894 415,894 393,875 390,875 385,873 381,873 380,872 374,871 367,868 364,868 351,863 345,862 342,860 337,859 334,857 332,857 329,855 327,855 324,853 317,851 283,834 243,808 234,800 229,797 217,786 216,786 200,770 199,770 193,763 191,762 191,761 182,752 182,751 171,739 171,738 167,734 155,718 147,706 146,703 142,698 126,668 126,666 118,650 117,645 115,642 115,640 114,639 114,637 106,615 106,612 105,611 105,608 104,607 104,604 102,599 102,595 101,594 99,580 98,579 96,560 95,559 95,556Z M421,553 418,555 418,557 414,564 414,566 410,573 408,580 405,585 405,587 403,590 400,600 398,603 396,611 394,614 394,616 386,638 386,641 384,645 383,652 381,656 381,659 380,660 380,663 379,664 379,667 378,668 378,671 377,672 377,675 375,680 375,685 374,686 374,690 373,691 373,695 372,696 372,702 371,703 371,708 370,709 369,727 368,728 368,783 369,784 369,793 370,794 370,804 371,805 371,811 372,812 373,824 374,825 374,829 375,830 375,835 376,836 377,844 387,855 388,855 388,850 387,849 386,821 385,820 385,750 386,749 386,736 387,735 388,714 389,713 390,699 391,698 391,693 392,692 392,687 393,686 394,676 395,675 396,667 397,666 397,662 398,661 399,654 401,650 402,643 404,639 404,636 405,635 409,621 411,618 412,613 414,610 415,605 430,575 430,572 426,565 426,563Z M115,532 104,543 104,551 105,552 105,558 106,559 106,565 107,566 107,572 108,573 109,582 110,583 111,591 113,596 113,600 115,604 117,614 118,615 123,632 127,640 128,645 131,650 131,652 135,659 135,661 141,673 143,675 147,684 149,686 154,696 168,717 179,730 182,735 193,747 193,748 225,780 226,780 247,798 262,808 265,811 268,812 273,816 276,817 281,821 286,823 293,828 328,845 330,845 338,849 343,850 346,852 354,854 357,856 360,856 361,857 363,857 370,860 373,860 374,861 378,861 368,852 366,852 363,850 349,846 344,843 339,842 307,826 305,824 300,822 295,818 292,817 277,807 274,804 270,802 266,798 255,790 249,784 248,784 239,775 238,775 215,752 215,751 208,744 208,743 193,726 181,710 179,706 176,703 175,700 172,697 169,691 165,686 154,665 152,663 152,661 148,655 148,653 142,642 140,635 137,630 137,628 136,627 135,622 133,619 133,617 131,613 131,610 128,603 128,600 126,596 126,593 124,588 124,584 123,583 123,580 121,575 121,569 120,568 119,556 118,555 118,547 117,546 117,533Z M226,528 225,529 225,534 226,535 226,549 227,550 228,566 229,567 229,573 230,574 230,578 231,579 231,583 232,584 232,589 235,597 236,604 239,611 240,617 242,620 243,625 248,635 248,637 260,659 268,670 268,665 267,664 266,656 265,655 264,647 263,646 263,641 262,640 262,635 261,634 261,628 260,627 260,621 259,620 259,612 258,611 258,597 257,596 257,552 241,538Z M304,525 302,525 283,539 275,547 274,547 267,555 267,599 268,600 268,610 269,611 269,619 270,620 271,633 272,634 272,638 273,639 275,653 276,654 276,657 277,658 278,663 279,662 279,652 280,651 280,641 281,640 282,622 283,621 283,615 284,614 284,607 285,606 285,601 286,600 287,588 288,587 288,583 289,582 291,568 292,567 292,564 293,563 296,548 297,547 297,545 300,538 300,535Z M393,522 391,523 382,542 380,544 380,546 376,553 376,555 371,565 370,570 368,573 368,575 366,579 365,585 363,588 363,590 361,594 361,597 359,601 359,604 358,605 358,608 357,609 357,612 356,613 356,616 355,617 355,620 353,625 352,634 351,635 351,640 350,641 349,651 348,652 348,657 347,658 347,664 346,665 345,679 344,680 344,688 343,689 342,715 341,716 341,743 340,744 341,800 342,801 342,803 352,815 362,829 363,829 363,822 362,821 362,816 361,815 360,798 359,797 359,785 358,784 358,733 359,732 360,713 361,712 361,708 362,707 363,695 364,694 364,690 365,689 365,685 366,684 366,680 367,679 367,675 369,670 370,662 372,658 372,655 375,647 375,644 378,637 378,634 379,633 387,607 389,604 391,596 393,593 393,591 395,588 397,581 400,576 400,574 402,571 404,564 408,557 408,555 414,543 414,541 407,533 407,532 400,526Z M128,523 126,525 126,530 127,531 127,545 128,546 129,561 130,562 130,567 131,568 131,573 133,578 133,582 134,583 134,586 135,587 135,590 136,591 136,594 137,595 137,598 139,602 139,605 140,606 141,611 143,614 143,616 144,617 146,625 148,628 148,630 150,633 150,635 163,662 165,664 170,675 174,680 175,683 189,704 195,711 200,719 213,734 213,735 219,741 219,742 252,775 258,779 268,788 284,800 287,801 298,809 315,818 317,820 335,829 337,829 349,835 356,837 354,833 349,828 339,814 333,808 317,801 315,799 308,796 306,794 298,790 278,776 261,761 260,761 233,733 233,732 227,726 221,717 214,709 210,702 205,696 204,693 200,688 199,685 191,673 189,668 187,666 173,638 173,636 170,631 170,629 167,624 166,619 164,616 163,611 161,608 160,602 155,589 155,586 154,585 154,582 153,581 153,578 151,573 149,559 148,558 144,518 140,518Z M193,515 193,540 194,541 194,552 195,553 195,559 196,560 197,572 198,573 198,577 200,582 201,590 202,591 203,597 207,607 207,610 212,621 212,623 217,634 217,636 233,668 251,695 260,705 260,706 283,729 292,735 288,727 288,725 285,720 283,713 281,710 276,694 260,677 252,665 241,644 241,642 239,639 237,632 234,627 234,625 231,618 231,615 226,602 226,599 225,598 225,595 224,594 224,591 223,590 223,587 221,582 221,578 220,577 220,574 218,569 218,563 217,562 217,557 216,556 216,548 215,547 215,539 214,538 214,522 208,518 198,516 197,515Z M363,513 355,513 353,515 352,519 348,526 348,528 344,536 344,538 336,560 336,563 334,567 334,570 333,571 333,574 332,575 332,578 331,579 331,582 329,587 329,591 328,592 328,596 326,601 326,605 325,606 325,611 324,612 323,623 322,624 322,629 321,630 321,635 320,636 320,642 319,643 319,650 318,651 318,657 317,658 316,673 315,674 314,695 313,696 313,706 312,707 312,720 311,721 311,733 310,734 310,750 319,767 330,784 331,782 331,778 330,777 330,733 331,732 331,709 332,708 332,695 333,694 333,684 334,683 334,676 335,675 336,660 337,659 337,654 338,653 338,647 340,642 341,631 343,626 343,622 344,621 347,606 348,605 349,599 351,595 351,592 356,579 357,573 359,570 359,568 361,565 363,558 366,553 368,546 382,519 381,517 379,517 378,516 370,515 369,514 364,514Z M155,515 154,516 154,524 155,525 156,544 157,545 158,556 159,557 159,561 160,562 160,566 161,567 161,571 162,572 165,587 170,600 171,606 173,609 173,611 175,614 176,619 181,629 181,631 195,660 197,662 203,674 207,679 208,682 212,687 217,696 220,699 222,703 231,715 239,724 239,725 268,755 269,755 281,766 293,774 296,777 302,780 310,786 322,792 316,780 314,778 309,768 307,766 302,755 290,747 277,736 276,736 254,714 254,713 248,707 239,695 228,678 221,664 219,662 211,646 211,644 207,637 207,635 201,622 201,620 200,619 199,614 197,611 197,608 194,601 194,598 192,594 192,591 191,590 191,587 189,582 189,578 188,577 188,573 187,572 187,568 186,567 186,562 185,561 184,545 183,544 183,536 182,535 182,514 179,514 178,513 167,513 166,514 159,514 158,515Z M340,512 339,513 327,514 326,515 323,515 320,517 315,528 315,530 313,533 313,535 305,557 305,560 303,564 303,567 302,568 302,571 300,576 300,580 298,584 297,593 296,594 296,599 295,600 294,610 293,611 293,617 292,618 292,627 291,628 291,635 290,636 290,645 289,646 287,696 288,697 289,702 291,705 295,718 300,728 302,727 302,710 303,709 303,699 304,698 304,686 305,685 306,667 307,666 308,652 309,651 309,643 310,642 310,636 311,635 311,630 312,629 314,612 315,611 315,607 316,606 318,592 320,587 320,583 321,582 321,579 323,574 323,570 327,559 328,552 329,551 333,537 335,534 336,529 342,516 342,513Z M502,37 497,44 497,46 495,50 495,54 494,55 494,63 495,64 495,68 498,75 500,77 500,80 494,87 494,89 492,93 492,104 493,105 494,110 496,112 499,118 505,124 516,129 519,129 523,131 526,131 527,132 533,133 537,135 540,135 544,137 548,137 549,138 553,138 554,139 571,140 573,141 594,162 594,163 608,178 608,179 622,196 632,211 630,213 625,213 624,212 599,212 596,209 595,204 586,187 579,179 579,178 567,166 561,162 552,158 549,158 548,157 540,157 539,158 535,158 531,160 526,165 524,169 523,174 520,177 518,176 510,176 509,177 507,177 502,180 498,187 498,190 497,191 497,203 498,204 499,210 504,217 504,220 503,221 503,230 504,231 504,235 506,240 512,247 518,250 521,250 522,251 541,251 542,250 546,250 547,249 555,247 572,239 592,225 594,226 598,226 599,225 601,226 602,225 604,225 605,226 640,226 644,230 645,233 647,235 663,267 663,269 666,274 666,276 670,284 670,286 673,292 673,294 674,295 674,297 682,319 682,322 684,326 684,329 685,330 685,333 686,334 686,337 688,342 688,346 690,351 690,355 691,356 691,362 689,363 664,346 661,345 653,339 650,338 644,333 644,324 643,323 643,318 642,317 641,309 640,308 638,300 632,288 623,275 619,271 607,263 597,261 596,260 587,260 586,261 579,262 573,265 567,270 550,269 549,270 540,271 534,274 528,280 526,284 526,288 525,289 525,303 520,309 517,317 517,329 518,330 519,335 522,340 527,345 533,349 535,349 540,352 543,352 547,354 554,354 555,355 561,355 562,354 573,353 577,351 580,351 581,350 584,350 589,348 593,348 594,347 610,346 611,345 620,345 621,344 628,344 629,343 631,343 640,347 659,360 664,362 682,374 693,380 696,383 696,386 697,387 697,394 698,395 698,402 699,403 699,410 700,411 701,435 702,436 703,473 702,474 698,473 678,459 675,458 666,452 663,449 663,446 662,445 662,438 661,437 661,430 660,429 660,424 659,423 659,418 658,417 658,412 657,411 655,400 649,387 647,384 636,374 628,370 624,370 619,368 605,368 604,369 601,369 600,370 595,371 588,375 580,382 572,379 563,378 562,377 550,377 549,378 543,378 542,379 534,381 530,386 530,388 529,389 529,402 531,407 535,412 535,415 533,416 529,421 525,431 525,442 526,443 527,448 531,454 540,460 542,460 546,462 549,462 550,463 553,463 554,464 560,464 561,465 582,465 583,464 589,464 590,463 594,463 595,462 599,462 600,461 604,461 605,460 612,460 613,459 651,458 701,490 703,493 703,498 702,499 702,503 703,504 715,492 717,485 720,482 729,477 737,471 740,470 746,465 754,461 764,454 775,454 776,455 784,455 785,456 797,457 798,458 802,458 803,459 810,460 814,462 817,462 821,464 824,464 825,465 827,465 831,467 834,467 841,470 849,470 850,471 878,471 879,470 887,468 896,463 908,450 910,446 912,436 913,435 913,424 912,423 911,417 908,411 902,403 902,400 904,395 904,385 903,384 902,377 897,368 890,361 882,357 879,357 878,356 860,356 859,357 856,357 855,358 847,360 840,364 830,362 829,361 825,361 824,360 809,360 808,361 801,361 800,362 790,364 776,372 768,381 764,392 764,396 763,397 763,400 761,405 761,410 760,411 760,421 759,422 758,435 757,436 756,443 752,447 741,453 731,460 728,461 721,466 719,466 718,465 717,424 716,423 716,415 715,414 714,398 713,397 713,391 712,390 711,379 752,339 770,339 771,340 774,340 775,339 788,339 789,338 803,337 804,336 809,336 810,335 814,335 815,334 829,332 834,330 838,330 852,324 862,316 862,315 868,309 874,299 874,296 875,295 875,286 874,285 874,281 870,274 865,270 861,268 854,267 852,265 852,263 843,246 836,238 836,237 827,230 813,230 812,231 809,231 801,235 793,244 778,241 777,242 770,242 769,243 766,243 758,247 752,252 743,265 738,278 738,281 737,282 737,290 736,291 737,312 738,313 738,319 741,327 741,330 740,332 737,334 710,361 708,361 707,360 704,345 702,341 701,334 699,330 699,327 698,326 692,306 687,295 686,288 717,240 719,239 724,239 725,238 730,238 731,237 734,237 739,235 743,235 744,234 746,234 750,232 753,232 756,230 761,229 764,227 766,227 768,225 775,222 781,218 790,210 790,209 797,201 804,189 804,186 805,185 805,177 802,169 795,163 793,163 790,161 785,161 782,158 781,151 777,144 775,142 766,138 755,138 754,139 749,140 745,142 735,153 725,152 724,153 716,154 709,158 698,170 694,178 693,187 692,188 692,197 693,198 693,206 694,207 694,211 695,212 695,215 696,216 698,224 703,233 703,237 682,270 679,272 671,257 671,255 664,241 662,239 658,230 656,228 652,220 653,210 654,209 654,200 655,199 656,186 657,185 657,178 658,177 658,170 659,169 659,166 662,163 671,159 685,149 706,127 709,121 711,119 711,117 714,111 714,107 715,106 715,98 714,97 714,93 712,89 704,83 701,83 700,82 689,82 686,80 684,70 681,64 677,60 672,59 671,58 660,59 653,63 644,73 635,73 631,75 628,75 620,80 616,85 612,96 612,104 613,105 613,109 614,110 615,116 617,119 618,123 620,125 622,130 628,139 646,160 646,164 645,165 645,174 644,175 644,182 643,183 643,190 642,191 642,197 641,199 639,200 631,188 616,168 612,164 612,163 585,133 589,120 590,119 590,115 591,114 591,107 592,106 591,88 590,87 589,78 588,77 584,63 579,53 573,44 564,36 554,32 547,32 546,33 543,33 536,37 526,36 525,35 508,35 507,36Z M459,37 454,36 453,35 436,35 435,36 425,37 420,34 418,34 414,32 406,32 405,33 400,34 394,38 387,45 382,54 380,56 379,60 376,65 376,67 373,74 371,85 370,86 369,107 370,108 370,115 371,116 372,123 375,130 375,134 374,136 360,150 360,151 344,169 322,200 320,200 319,199 318,183 317,182 316,169 315,168 315,160 333,139 338,130 340,128 347,113 348,105 349,104 349,97 348,96 348,91 344,82 340,78 331,74 316,73 311,66 303,60 297,59 296,58 289,58 284,60 280,64 276,71 276,73 275,74 275,79 273,81 261,82 258,84 256,84 250,89 246,97 246,108 251,121 257,130 267,141 268,141 276,149 277,149 285,156 300,164 302,166 302,170 303,171 303,179 304,180 305,194 306,195 306,202 307,203 307,210 308,211 308,217 309,219 306,226 304,228 301,235 299,237 287,261 287,263 284,269 281,272 278,269 275,263 267,252 266,249 258,238 258,233 264,221 266,211 267,210 267,206 268,205 268,194 269,193 269,191 268,190 268,182 264,172 260,166 252,158 247,155 245,155 241,153 237,153 236,152 226,153 222,149 222,148 214,141 206,138 196,138 195,139 189,140 183,145 181,148 181,150 179,154 179,158 176,161 171,161 170,162 168,162 164,164 159,169 156,176 156,187 161,197 170,209 180,218 195,227 197,227 205,231 211,232 218,235 243,240 249,247 253,255 256,258 257,261 261,266 262,269 268,277 269,280 275,289 275,292 271,300 271,302 270,303 269,308 267,311 266,317 264,320 263,326 260,333 258,344 255,352 255,356 254,357 254,359 252,361 251,361 220,331 220,327 221,326 221,323 223,318 223,312 224,311 224,299 225,298 224,296 224,283 223,282 222,275 216,262 212,256 201,246 191,242 175,242 171,244 168,244 162,237 152,231 148,231 147,230 134,230 130,232 124,238 124,239 117,247 115,252 112,256 112,258 109,264 106,267 103,267 96,270 93,272 88,278 87,284 86,285 86,297 90,305 98,314 98,315 102,319 112,326 123,330 127,330 132,332 136,332 137,333 146,334 147,335 151,335 152,336 163,337 164,338 184,339 185,340 189,340 190,339 209,339 249,378 250,383 249,384 249,388 248,389 248,395 247,396 247,401 246,402 246,410 245,411 245,418 244,419 244,434 243,435 243,465 242,466 238,465 236,463 223,456 205,444 205,442 204,441 204,435 203,434 203,425 202,424 201,412 200,411 200,402 199,401 198,390 194,382 186,373 179,368 171,364 168,364 160,361 154,361 153,360 137,360 136,361 127,362 124,364 120,364 111,359 109,359 105,357 102,357 101,356 82,356 76,359 74,359 63,369 59,377 58,383 57,384 57,396 59,400 59,403 54,409 50,416 49,422 48,423 48,428 47,429 48,430 48,436 49,437 50,444 54,452 60,459 68,465 76,469 82,470 83,471 110,471 111,470 120,470 121,469 125,469 126,468 137,466 138,465 144,464 145,463 156,460 159,458 163,458 164,457 176,456 177,455 184,455 185,454 197,454 242,483 244,485 245,491 258,504 259,503 258,501 258,492 260,490 281,476 284,475 292,469 295,468 301,463 310,458 347,459 348,460 356,460 357,461 361,461 362,462 366,462 367,463 371,463 372,464 377,464 378,465 399,465 400,464 407,464 408,463 415,462 421,459 423,459 433,450 433,448 435,445 435,442 436,441 436,433 435,432 435,428 433,423 426,415 426,412 430,407 430,405 432,401 432,390 428,382 421,379 412,378 411,377 398,377 397,378 388,379 385,381 381,382 374,376 366,371 364,371 360,369 356,369 355,368 342,368 341,369 333,370 322,376 312,387 307,397 307,399 305,403 305,406 304,407 304,411 303,412 303,416 302,417 302,421 301,422 301,428 300,429 300,436 299,437 298,449 269,469 266,470 263,473 261,474 259,474 258,473 259,433 260,432 260,421 261,420 261,410 262,409 263,392 264,391 264,385 269,379 272,378 282,371 285,370 300,360 303,359 305,357 308,356 318,349 329,343 332,343 333,344 341,344 342,345 351,345 352,346 360,346 361,347 368,347 369,348 380,350 381,351 391,353 392,354 407,355 408,354 417,353 431,347 438,341 442,335 442,333 444,329 444,318 440,308 435,301 436,299 436,289 435,288 434,282 427,274 421,271 411,270 410,269 402,269 401,270 396,271 384,263 382,263 378,261 375,261 374,260 365,260 364,261 357,262 347,267 337,276 328,289 322,301 322,303 319,310 318,319 317,320 317,332 316,334 271,363 269,361 270,359 270,355 271,354 271,350 272,349 272,346 274,341 275,333 277,329 278,322 281,315 282,309 285,303 285,300 286,299 287,294 291,286 294,276 301,262 301,260 310,242 312,240 314,235 316,233 319,227 321,226 355,226 356,225 366,225 367,226 372,227 384,236 403,246 405,246 408,248 414,249 415,250 427,251 428,252 438,251 439,250 445,249 450,246 454,241 457,234 457,217 462,210 462,207 464,202 464,192 463,191 462,185 461,183 454,177 451,177 450,176 443,176 442,177 440,177 438,174 437,169 434,164 430,160 425,158 422,158 421,157 413,157 412,158 408,158 401,161 393,167 383,177 383,178 376,186 371,195 369,197 368,201 366,204 366,206 363,211 361,212 337,212 336,213 332,213 330,211 330,209 344,189 358,173 358,172 389,140 407,139 408,138 412,138 413,137 424,135 425,134 436,131 439,129 444,128 447,126 449,126 451,124 459,120 464,115 469,103 469,93 466,86 461,81 461,77 466,67 466,51 465,50 465,47Z" fill="#000" fill-rule="evenodd"/>
</svg>
